<?xml version="1.0" standalone="no"?>
<!DOCTYPE svg PUBLIC "-//W3C//DTD SVG 20010904//EN"
 "http://www.w3.org/TR/2001/REC-SVG-20010904/DTD/svg10.dtd">
<svg version="1.0" xmlns="http://www.w3.org/2000/svg"
 width="322.000000pt" height="100.000000pt" viewBox="0 0 322.000000 100.000000"
 preserveAspectRatio="xMidYMid meet">

<g transform="translate(0.000000,100.000000) scale(0.100000,-0.100000)"
fill="#000000" stroke="none">
<path d="M748 687 c7 -8 6 -18 -3 -31 -24 -32 -8 -46 55 -46 64 0 79 13 54 49
-8 12 -12 27 -8 34 6 9 4 9 -7 0 -16 -15 -65 -17 -74 -3 -3 6 -11 10 -17 10
-7 0 -7 -4 0 -13z"/>
<path d="M690 652 c0 -11 9 -27 19 -36 19 -18 19 -17 9 18 -12 38 -28 48 -28
18z"/>
<path d="M887 653 c-2 -10 -8 -27 -12 -38 -6 -17 -4 -17 14 4 22 24 28 51 12
51 -5 0 -11 -8 -14 -17z"/>
<path d="M1955 610 c-3 -6 4 -14 17 -19 19 -7 30 -32 67 -155 27 -88 49 -146
57 -146 7 0 26 43 44 98 18 53 35 100 39 104 4 4 24 -39 45 -97 21 -58 43
-105 50 -105 7 0 31 61 56 140 24 77 49 145 56 151 7 6 23 9 36 7 22 -3 23 -6
26 -131 2 -122 2 -129 -18 -134 -44 -12 -16 -23 55 -23 43 0 75 4 75 10 0 6
-9 10 -19 10 -22 0 -31 19 -31 66 0 32 2 34 35 34 51 0 94 26 111 66 17 42 10
74 -23 106 -23 21 -34 23 -164 26 -77 2 -147 1 -157 -3 -15 -6 -14 -8 6 -24
l24 -17 -23 -87 c-13 -47 -25 -84 -28 -81 -3 3 -22 49 -42 102 -20 55 -42 98
-50 100 -11 2 -24 -28 -48 -105 -37 -119 -34 -119 -69 5 -20 71 -20 72 -1 83
11 5 17 14 14 20 -8 12 -132 12 -140 -1z m629 -42 c34 -49 8 -118 -45 -118
l-29 0 0 63 c0 35 3 67 7 70 14 15 53 6 67 -15z"/>
<path d="M2680 606 c0 -7 9 -16 20 -19 19 -5 20 -14 20 -132 0 -118 -1 -127
-20 -132 -43 -11 -17 -23 50 -23 67 0 93 12 50 23 -19 5 -20 14 -20 131 0 115
2 126 20 136 37 20 20 30 -50 30 -53 0 -70 -3 -70 -14z"/>
<path d="M683 580 c-122 -32 -168 -68 -161 -127 2 -21 9 -29 28 -31 14 -2 29
-8 34 -13 16 -15 65 -10 84 9 9 9 27 31 39 47 18 24 24 27 32 16 6 -10 29 -15
68 -15 l58 -1 22 -45 c12 -25 25 -58 28 -73 6 -32 25 -27 25 7 0 24 -42 93
-68 112 -8 6 -12 16 -8 23 5 7 23 -8 51 -43 25 -30 50 -56 57 -59 16 -5 90 22
100 37 16 23 7 57 -23 91 -24 27 -49 40 -110 60 -94 30 -157 31 -256 5z m67
-11 c0 -17 -111 -159 -124 -159 -7 0 -16 4 -21 9 -6 5 -21 11 -35 13 -36 4
-37 39 -3 78 36 40 183 87 183 59z m175 -10 c99 -24 135 -51 135 -100 0 -26
-30 -37 -42 -16 -13 24 -47 21 -57 -5 -7 -19 -13 -15 -65 51 -52 65 -64 96
-33 87 7 -2 35 -10 62 -17z"/>
<path d="M691 429 c-31 -42 -36 -63 -25 -93 10 -27 21 -18 27 23 3 22 12 54
21 72 24 48 12 47 -23 -2z"/>
<path d="M761 451 c-48 -13 -31 -26 31 -24 62 1 54 -2 -29 -13 -59 -7 -56 -30
4 -37 62 -7 113 2 113 19 0 8 -4 14 -10 14 -5 0 -7 6 -4 14 3 8 2 16 -3 19
-17 10 -79 15 -102 8z"/>
<path d="M722 354 c3 -16 14 -19 69 -22 50 -2 69 1 79 13 11 13 7 15 -31 15
-24 0 -61 3 -83 7 -34 5 -38 4 -34 -13z"/>
<path d="M448 284 c3 -45 0 -58 -15 -69 -16 -13 -14 -14 28 -15 57 0 97 26 84
56 -4 10 -7 30 -6 43 3 29 -13 41 -59 41 l-35 0 3 -56z m72 15 c0 -24 -23 -21
-28 4 -2 10 3 17 12 17 10 0 16 -9 16 -21z m6 -68 c-11 -18 -36 -13 -36 7 0
10 3 22 7 26 10 10 37 -20 29 -33z"/>
<path d="M765 288 c14 -16 25 -40 25 -54 0 -13 5 -24 10 -24 6 0 10 14 10 30
0 20 9 39 25 54 l26 24 -61 0 -60 0 25 -30z"/>
<path d="M957 313 c-4 -3 -7 -31 -7 -60 0 -76 24 -67 28 10 3 52 -4 68 -21 50z"/>
<path d="M572 268 c-16 -16 -15 -43 3 -58 12 -10 24 -10 48 -2 l32 10 -35 2
-35 2 33 9 c22 7 32 16 32 29 0 16 -7 20 -33 20 -18 0 -38 -5 -45 -12z m58 -8
c0 -5 -9 -10 -21 -10 -11 0 -17 5 -14 10 3 6 13 10 21 10 8 0 14 -4 14 -10z"/>
<path d="M688 269 c-10 -5 -18 -21 -18 -34 0 -29 33 -41 70 -26 24 9 24 10
-10 11 l-35 2 33 9 c23 7 32 15 30 27 -4 20 -45 27 -70 11z m47 -9 c3 -5 -3
-10 -15 -10 -12 0 -18 5 -15 10 3 6 10 10 15 10 5 0 12 -4 15 -10z"/>
<path d="M865 273 c34 -8 41 -23 13 -23 -32 0 -44 -16 -27 -36 16 -19 59 -14
73 9 17 26 -4 52 -45 54 -19 1 -25 -1 -14 -4z m35 -41 c0 -14 -11 -21 -26 -15
-21 8 -17 23 6 23 11 0 20 -4 20 -8z"/>
<path d="M1007 262 c-10 -11 -15 -26 -11 -36 8 -21 47 -31 71 -17 16 9 14 10
-12 11 l-30 1 33 14 c40 17 38 39 -4 43 -20 2 -36 -4 -47 -16z m58 -2 c3 -5
-3 -10 -14 -10 -12 0 -21 5 -21 10 0 6 6 10 14 10 8 0 18 -4 21 -10z"/>
<path d="M1105 270 c-10 -16 4 -30 31 -30 13 0 24 -5 24 -11 0 -8 -11 -9 -31
-5 -27 5 -30 4 -19 -9 28 -33 68 -11 68 38 0 24 -4 27 -34 27 -18 0 -36 -4
-39 -10z"/>
</g>
</svg>
